<svg width="132" height="115" viewBox="0 0 132 115" fill="none" xmlns="http://www.w3.org/2000/svg">
<g opacity="0.3">
<mask id="mask0_1_1083" style="mask-type:alpha" maskUnits="userSpaceOnUse" x="0" y="0" width="11" height="11">
<path d="M5.22838 10.4251C8.11594 10.4251 10.4568 8.09133 10.4568 5.21257C10.4568 2.33381 8.11594 0.00012207 5.22838 0.00012207C2.34082 0.00012207 0 2.33381 0 5.21257C0 8.09133 2.34082 10.4251 5.22838 10.4251Z" fill="url(#paint0_linear_1_1083)"/>
</mask>
<g mask="url(#mask0_1_1083)">
<path d="M5.22838 10.4251C8.11594 10.4251 10.4568 8.09133 10.4568 5.21257C10.4568 2.33381 8.11594 0.00012207 5.22838 0.00012207C2.34082 0.00012207 0 2.33381 0 5.21257C0 8.09133 2.34082 10.4251 5.22838 10.4251Z" fill="url(#paint1_linear_1_1083)"/>
</g>
<mask id="mask1_1_1083" style="mask-type:alpha" maskUnits="userSpaceOnUse" x="30" y="0" width="11" height="11">
<path d="M35.5094 10.4251C38.397 10.4251 40.7378 8.09133 40.7378 5.21257C40.7378 2.33381 38.397 0.00012207 35.5094 0.00012207C32.6218 0.00012207 30.281 2.33381 30.281 5.21257C30.281 8.09133 32.6218 10.4251 35.5094 10.4251Z" fill="url(#paint2_linear_1_1083)"/>
</mask>
<g mask="url(#mask1_1_1083)">
<path d="M35.5094 10.4251C38.397 10.4251 40.7378 8.09133 40.7378 5.21257C40.7378 2.33381 38.397 0.00012207 35.5094 0.00012207C32.6218 0.00012207 30.281 2.33381 30.281 5.21257C30.281 8.09133 32.6218 10.4251 35.5094 10.4251Z" fill="url(#paint3_linear_1_1083)"/>
</g>
<mask id="mask2_1_1083" style="mask-type:alpha" maskUnits="userSpaceOnUse" x="60" y="0" width="12" height="11">
<path d="M65.7905 10.4251C68.6781 10.4251 71.0189 8.09133 71.0189 5.21257C71.0189 2.33381 68.6781 0.00012207 65.7905 0.00012207C62.903 0.00012207 60.5621 2.33381 60.5621 5.21257C60.5621 8.09133 62.903 10.4251 65.7905 10.4251Z" fill="url(#paint4_linear_1_1083)"/>
</mask>
<g mask="url(#mask2_1_1083)">
<path d="M65.7905 10.4251C68.6781 10.4251 71.0189 8.09133 71.0189 5.21257C71.0189 2.33381 68.6781 0.00012207 65.7905 0.00012207C62.903 0.00012207 60.5621 2.33381 60.5621 5.21257C60.5621 8.09133 62.903 10.4251 65.7905 10.4251Z" fill="url(#paint5_linear_1_1083)"/>
</g>
<mask id="mask3_1_1083" style="mask-type:alpha" maskUnits="userSpaceOnUse" x="90" y="0" width="12" height="11">
<path d="M96.0717 10.4251C98.9592 10.4251 101.3 8.09133 101.3 5.21257C101.3 2.33381 98.9592 0.00012207 96.0717 0.00012207C93.1841 0.00012207 90.8433 2.33381 90.8433 5.21257C90.8433 8.09133 93.1841 10.4251 96.0717 10.4251Z" fill="url(#paint6_linear_1_1083)"/>
</mask>
<g mask="url(#mask3_1_1083)">
<path d="M96.0717 10.4251C98.9592 10.4251 101.3 8.09133 101.3 5.21257C101.3 2.33381 98.9592 0.00012207 96.0717 0.00012207C93.1841 0.00012207 90.8433 2.33381 90.8433 5.21257C90.8433 8.09133 93.1841 10.4251 96.0717 10.4251Z" fill="url(#paint7_linear_1_1083)"/>
</g>
<mask id="mask4_1_1083" style="mask-type:alpha" maskUnits="userSpaceOnUse" x="121" y="0" width="11" height="11">
<path d="M126.353 10.4251C129.24 10.4251 131.581 8.09133 131.581 5.21257C131.581 2.33381 129.24 0.00012207 126.353 0.00012207C123.465 0.00012207 121.124 2.33381 121.124 5.21257C121.124 8.09133 123.465 10.4251 126.353 10.4251Z" fill="url(#paint8_linear_1_1083)"/>
</mask>
<g mask="url(#mask4_1_1083)">
<path d="M126.353 10.4251C129.24 10.4251 131.581 8.09133 131.581 5.21257C131.581 2.33381 129.24 0.00012207 126.353 0.00012207C123.465 0.00012207 121.124 2.33381 121.124 5.21257C121.124 8.09133 123.465 10.4251 126.353 10.4251Z" fill="url(#paint9_linear_1_1083)"/>
</g>
<mask id="mask5_1_1083" style="mask-type:alpha" maskUnits="userSpaceOnUse" x="0" y="26" width="11" height="11">
<path d="M5.22838 36.5959C8.11594 36.5959 10.4568 34.2623 10.4568 31.3835C10.4568 28.5048 8.11594 26.1711 5.22838 26.1711C2.34082 26.1711 0 28.5048 0 31.3835C0 34.2623 2.34082 36.5959 5.22838 36.5959Z" fill="url(#paint10_linear_1_1083)"/>
</mask>
<g mask="url(#mask5_1_1083)">
<path d="M5.22838 36.5959C8.11594 36.5959 10.4568 34.2623 10.4568 31.3835C10.4568 28.5048 8.11594 26.1711 5.22838 26.1711C2.34082 26.1711 0 28.5048 0 31.3835C0 34.2623 2.34082 36.5959 5.22838 36.5959Z" fill="url(#paint11_linear_1_1083)"/>
</g>
<mask id="mask6_1_1083" style="mask-type:alpha" maskUnits="userSpaceOnUse" x="30" y="26" width="11" height="11">
<path d="M35.5094 36.5959C38.397 36.5959 40.7378 34.2623 40.7378 31.3835C40.7378 28.5048 38.397 26.1711 35.5094 26.1711C32.6218 26.1711 30.281 28.5048 30.281 31.3835C30.281 34.2623 32.6218 36.5959 35.5094 36.5959Z" fill="url(#paint12_linear_1_1083)"/>
</mask>
<g mask="url(#mask6_1_1083)">
<path d="M35.5094 36.5959C38.397 36.5959 40.7378 34.2623 40.7378 31.3835C40.7378 28.5048 38.397 26.1711 35.5094 26.1711C32.6218 26.1711 30.281 28.5048 30.281 31.3835C30.281 34.2623 32.6218 36.5959 35.5094 36.5959Z" fill="url(#paint13_linear_1_1083)"/>
</g>
<mask id="mask7_1_1083" style="mask-type:alpha" maskUnits="userSpaceOnUse" x="60" y="26" width="12" height="11">
<path d="M65.7905 36.5959C68.6781 36.5959 71.0189 34.2623 71.0189 31.3835C71.0189 28.5048 68.6781 26.1711 65.7905 26.1711C62.903 26.1711 60.5621 28.5048 60.5621 31.3835C60.5621 34.2623 62.903 36.5959 65.7905 36.5959Z" fill="url(#paint14_linear_1_1083)"/>
</mask>
<g mask="url(#mask7_1_1083)">
<path d="M65.7905 36.5959C68.6781 36.5959 71.0189 34.2623 71.0189 31.3835C71.0189 28.5048 68.6781 26.1711 65.7905 26.1711C62.903 26.1711 60.5621 28.5048 60.5621 31.3835C60.5621 34.2623 62.903 36.5959 65.7905 36.5959Z" fill="url(#paint15_linear_1_1083)"/>
</g>
<mask id="mask8_1_1083" style="mask-type:alpha" maskUnits="userSpaceOnUse" x="90" y="26" width="12" height="11">
<path d="M96.0717 36.5959C98.9592 36.5959 101.3 34.2623 101.3 31.3835C101.3 28.5048 98.9592 26.1711 96.0717 26.1711C93.1841 26.1711 90.8433 28.5048 90.8433 31.3835C90.8433 34.2623 93.1841 36.5959 96.0717 36.5959Z" fill="url(#paint16_linear_1_1083)"/>
</mask>
<g mask="url(#mask8_1_1083)">
<path d="M96.0717 36.5959C98.9592 36.5959 101.3 34.2623 101.3 31.3835C101.3 28.5048 98.9592 26.1711 96.0717 26.1711C93.1841 26.1711 90.8433 28.5048 90.8433 31.3835C90.8433 34.2623 93.1841 36.5959 96.0717 36.5959Z" fill="url(#paint17_linear_1_1083)"/>
</g>
<mask id="mask9_1_1083" style="mask-type:alpha" maskUnits="userSpaceOnUse" x="121" y="26" width="11" height="11">
<path d="M126.353 36.5959C129.24 36.5959 131.581 34.2623 131.581 31.3835C131.581 28.5048 129.24 26.1711 126.353 26.1711C123.465 26.1711 121.124 28.5048 121.124 31.3835C121.124 34.2623 123.465 36.5959 126.353 36.5959Z" fill="url(#paint18_linear_1_1083)"/>
</mask>
<g mask="url(#mask9_1_1083)">
<path d="M126.353 36.5959C129.24 36.5959 131.581 34.2623 131.581 31.3835C131.581 28.5048 129.24 26.1711 126.353 26.1711C123.465 26.1711 121.124 28.5048 121.124 31.3835C121.124 34.2623 123.465 36.5959 126.353 36.5959Z" fill="url(#paint19_linear_1_1083)"/>
</g>
<mask id="mask10_1_1083" style="mask-type:alpha" maskUnits="userSpaceOnUse" x="0" y="52" width="11" height="11">
<path d="M5.22838 62.7126C8.11594 62.7126 10.4568 60.3789 10.4568 57.5001C10.4568 54.6213 8.11594 52.2876 5.22838 52.2876C2.34082 52.2876 0 54.6213 0 57.5001C0 60.3789 2.34082 62.7126 5.22838 62.7126Z" fill="url(#paint20_linear_1_1083)"/>
</mask>
<g mask="url(#mask10_1_1083)">
<path d="M5.22838 62.7126C8.11594 62.7126 10.4568 60.3789 10.4568 57.5001C10.4568 54.6213 8.11594 52.2876 5.22838 52.2876C2.34082 52.2876 0 54.6213 0 57.5001C0 60.3789 2.34082 62.7126 5.22838 62.7126Z" fill="url(#paint21_linear_1_1083)"/>
</g>
<mask id="mask11_1_1083" style="mask-type:alpha" maskUnits="userSpaceOnUse" x="30" y="52" width="11" height="11">
<path d="M35.5094 62.7126C38.397 62.7126 40.7378 60.3789 40.7378 57.5001C40.7378 54.6213 38.397 52.2876 35.5094 52.2876C32.6218 52.2876 30.281 54.6213 30.281 57.5001C30.281 60.3789 32.6218 62.7126 35.5094 62.7126Z" fill="url(#paint22_linear_1_1083)"/>
</mask>
<g mask="url(#mask11_1_1083)">
<path d="M35.5094 62.7126C38.397 62.7126 40.7378 60.3789 40.7378 57.5001C40.7378 54.6213 38.397 52.2876 35.5094 52.2876C32.6218 52.2876 30.281 54.6213 30.281 57.5001C30.281 60.3789 32.6218 62.7126 35.5094 62.7126Z" fill="url(#paint23_linear_1_1083)"/>
</g>
<mask id="mask12_1_1083" style="mask-type:alpha" maskUnits="userSpaceOnUse" x="60" y="52" width="12" height="11">
<path d="M65.7905 62.7126C68.6781 62.7126 71.0189 60.3789 71.0189 57.5001C71.0189 54.6213 68.6781 52.2876 65.7905 52.2876C62.903 52.2876 60.5621 54.6213 60.5621 57.5001C60.5621 60.3789 62.903 62.7126 65.7905 62.7126Z" fill="url(#paint24_linear_1_1083)"/>
</mask>
<g mask="url(#mask12_1_1083)">
<path d="M65.7905 62.7126C68.6781 62.7126 71.0189 60.3789 71.0189 57.5001C71.0189 54.6213 68.6781 52.2876 65.7905 52.2876C62.903 52.2876 60.5621 54.6213 60.5621 57.5001C60.5621 60.3789 62.903 62.7126 65.7905 62.7126Z" fill="url(#paint25_linear_1_1083)"/>
</g>
<mask id="mask13_1_1083" style="mask-type:alpha" maskUnits="userSpaceOnUse" x="90" y="52" width="12" height="11">
<path d="M96.0717 62.7126C98.9592 62.7126 101.3 60.3789 101.3 57.5001C101.3 54.6213 98.9592 52.2876 96.0717 52.2876C93.1841 52.2876 90.8433 54.6213 90.8433 57.5001C90.8433 60.3789 93.1841 62.7126 96.0717 62.7126Z" fill="url(#paint26_linear_1_1083)"/>
</mask>
<g mask="url(#mask13_1_1083)">
<path d="M96.0717 62.7126C98.9592 62.7126 101.3 60.3789 101.3 57.5001C101.3 54.6213 98.9592 52.2876 96.0717 52.2876C93.1841 52.2876 90.8433 54.6213 90.8433 57.5001C90.8433 60.3789 93.1841 62.7126 96.0717 62.7126Z" fill="url(#paint27_linear_1_1083)"/>
</g>
<mask id="mask14_1_1083" style="mask-type:alpha" maskUnits="userSpaceOnUse" x="121" y="52" width="11" height="11">
<path d="M126.353 62.7126C129.24 62.7126 131.581 60.3789 131.581 57.5001C131.581 54.6213 129.24 52.2876 126.353 52.2876C123.465 52.2876 121.124 54.6213 121.124 57.5001C121.124 60.3789 123.465 62.7126 126.353 62.7126Z" fill="url(#paint28_linear_1_1083)"/>
</mask>
<g mask="url(#mask14_1_1083)">
<path d="M126.353 62.7126C129.24 62.7126 131.581 60.3789 131.581 57.5001C131.581 54.6213 129.24 52.2876 126.353 52.2876C123.465 52.2876 121.124 54.6213 121.124 57.5001C121.124 60.3789 123.465 62.7126 126.353 62.7126Z" fill="url(#paint29_linear_1_1083)"/>
</g>
<mask id="mask15_1_1083" style="mask-type:alpha" maskUnits="userSpaceOnUse" x="0" y="78" width="11" height="11">
<path d="M5.22838 88.8835C8.11594 88.8835 10.4568 86.5498 10.4568 83.671C10.4568 80.7922 8.11594 78.4586 5.22838 78.4586C2.34082 78.4586 0 80.7922 0 83.671C0 86.5498 2.34082 88.8835 5.22838 88.8835Z" fill="url(#paint30_linear_1_1083)"/>
</mask>
<g mask="url(#mask15_1_1083)">
<path d="M5.22838 88.8835C8.11594 88.8835 10.4568 86.5498 10.4568 83.671C10.4568 80.7922 8.11594 78.4586 5.22838 78.4586C2.34082 78.4586 0 80.7922 0 83.671C0 86.5498 2.34082 88.8835 5.22838 88.8835Z" fill="url(#paint31_linear_1_1083)"/>
</g>
<mask id="mask16_1_1083" style="mask-type:alpha" maskUnits="userSpaceOnUse" x="30" y="78" width="11" height="11">
<path d="M35.5094 88.8835C38.397 88.8835 40.7378 86.5498 40.7378 83.671C40.7378 80.7922 38.397 78.4586 35.5094 78.4586C32.6218 78.4586 30.281 80.7922 30.281 83.671C30.281 86.5498 32.6218 88.8835 35.5094 88.8835Z" fill="url(#paint32_linear_1_1083)"/>
</mask>
<g mask="url(#mask16_1_1083)">
<path d="M35.5094 88.8835C38.397 88.8835 40.7378 86.5498 40.7378 83.671C40.7378 80.7922 38.397 78.4586 35.5094 78.4586C32.6218 78.4586 30.281 80.7922 30.281 83.671C30.281 86.5498 32.6218 88.8835 35.5094 88.8835Z" fill="url(#paint33_linear_1_1083)"/>
</g>
<mask id="mask17_1_1083" style="mask-type:alpha" maskUnits="userSpaceOnUse" x="60" y="78" width="12" height="11">
<path d="M65.7905 88.8835C68.6781 88.8835 71.0189 86.5498 71.0189 83.671C71.0189 80.7922 68.6781 78.4586 65.7905 78.4586C62.903 78.4586 60.5621 80.7922 60.5621 83.671C60.5621 86.5498 62.903 88.8835 65.7905 88.8835Z" fill="url(#paint34_linear_1_1083)"/>
</mask>
<g mask="url(#mask17_1_1083)">
<path d="M65.7905 88.8835C68.6781 88.8835 71.0189 86.5498 71.0189 83.671C71.0189 80.7922 68.6781 78.4586 65.7905 78.4586C62.903 78.4586 60.5621 80.7922 60.5621 83.671C60.5621 86.5498 62.903 88.8835 65.7905 88.8835Z" fill="url(#paint35_linear_1_1083)"/>
</g>
<mask id="mask18_1_1083" style="mask-type:alpha" maskUnits="userSpaceOnUse" x="90" y="78" width="12" height="11">
<path d="M96.0717 88.8835C98.9592 88.8835 101.3 86.5498 101.3 83.671C101.3 80.7922 98.9592 78.4586 96.0717 78.4586C93.1841 78.4586 90.8433 80.7922 90.8433 83.671C90.8433 86.5498 93.1841 88.8835 96.0717 88.8835Z" fill="url(#paint36_linear_1_1083)"/>
</mask>
<g mask="url(#mask18_1_1083)">
<path d="M96.0717 88.8835C98.9592 88.8835 101.3 86.5498 101.3 83.671C101.3 80.7922 98.9592 78.4586 96.0717 78.4586C93.1841 78.4586 90.8433 80.7922 90.8433 83.671C90.8433 86.5498 93.1841 88.8835 96.0717 88.8835Z" fill="url(#paint37_linear_1_1083)"/>
</g>
<mask id="mask19_1_1083" style="mask-type:alpha" maskUnits="userSpaceOnUse" x="121" y="78" width="11" height="11">
<path d="M126.353 88.8835C129.24 88.8835 131.581 86.5498 131.581 83.671C131.581 80.7922 129.24 78.4586 126.353 78.4586C123.465 78.4586 121.124 80.7922 121.124 83.671C121.124 86.5498 123.465 88.8835 126.353 88.8835Z" fill="url(#paint38_linear_1_1083)"/>
</mask>
<g mask="url(#mask19_1_1083)">
<path d="M126.353 88.8835C129.24 88.8835 131.581 86.5498 131.581 83.671C131.581 80.7922 129.24 78.4586 126.353 78.4586C123.465 78.4586 121.124 80.7922 121.124 83.671C121.124 86.5498 123.465 88.8835 126.353 88.8835Z" fill="url(#paint39_linear_1_1083)"/>
</g>
<mask id="mask20_1_1083" style="mask-type:alpha" maskUnits="userSpaceOnUse" x="0" y="104" width="11" height="12">
<path d="M5.22838 115C8.11594 115 10.4568 112.666 10.4568 109.788C10.4568 106.909 8.11594 104.575 5.22838 104.575C2.34082 104.575 0 106.909 0 109.788C0 112.666 2.34082 115 5.22838 115Z" fill="url(#paint40_linear_1_1083)"/>
</mask>
<g mask="url(#mask20_1_1083)">
<path d="M5.22838 115C8.11594 115 10.4568 112.666 10.4568 109.788C10.4568 106.909 8.11594 104.575 5.22838 104.575C2.34082 104.575 0 106.909 0 109.788C0 112.666 2.34082 115 5.22838 115Z" fill="url(#paint41_linear_1_1083)"/>
</g>
<mask id="mask21_1_1083" style="mask-type:alpha" maskUnits="userSpaceOnUse" x="30" y="104" width="11" height="12">
<path d="M35.5094 115C38.397 115 40.7378 112.666 40.7378 109.788C40.7378 106.909 38.397 104.575 35.5094 104.575C32.6218 104.575 30.281 106.909 30.281 109.788C30.281 112.666 32.6218 115 35.5094 115Z" fill="url(#paint42_linear_1_1083)"/>
</mask>
<g mask="url(#mask21_1_1083)">
<path d="M35.5094 115C38.397 115 40.7378 112.666 40.7378 109.788C40.7378 106.909 38.397 104.575 35.5094 104.575C32.6218 104.575 30.281 106.909 30.281 109.788C30.281 112.666 32.6218 115 35.5094 115Z" fill="url(#paint43_linear_1_1083)"/>
</g>
<mask id="mask22_1_1083" style="mask-type:alpha" maskUnits="userSpaceOnUse" x="60" y="104" width="12" height="12">
<path d="M65.7905 115C68.6781 115 71.0189 112.666 71.0189 109.788C71.0189 106.909 68.6781 104.575 65.7905 104.575C62.903 104.575 60.5621 106.909 60.5621 109.788C60.5621 112.666 62.903 115 65.7905 115Z" fill="url(#paint44_linear_1_1083)"/>
</mask>
<g mask="url(#mask22_1_1083)">
<path d="M65.7905 115C68.6781 115 71.0189 112.666 71.0189 109.788C71.0189 106.909 68.6781 104.575 65.7905 104.575C62.903 104.575 60.5621 106.909 60.5621 109.788C60.5621 112.666 62.903 115 65.7905 115Z" fill="url(#paint45_linear_1_1083)"/>
</g>
<mask id="mask23_1_1083" style="mask-type:alpha" maskUnits="userSpaceOnUse" x="90" y="104" width="12" height="12">
<path d="M96.0717 115C98.9592 115 101.3 112.666 101.3 109.788C101.3 106.909 98.9592 104.575 96.0717 104.575C93.1841 104.575 90.8433 106.909 90.8433 109.788C90.8433 112.666 93.1841 115 96.0717 115Z" fill="url(#paint46_linear_1_1083)"/>
</mask>
<g mask="url(#mask23_1_1083)">
<path d="M96.0717 115C98.9592 115 101.3 112.666 101.3 109.788C101.3 106.909 98.9592 104.575 96.0717 104.575C93.1841 104.575 90.8433 106.909 90.8433 109.788C90.8433 112.666 93.1841 115 96.0717 115Z" fill="url(#paint47_linear_1_1083)"/>
</g>
<mask id="mask24_1_1083" style="mask-type:alpha" maskUnits="userSpaceOnUse" x="121" y="104" width="11" height="12">
<path d="M126.353 115C129.24 115 131.581 112.666 131.581 109.788C131.581 106.909 129.24 104.575 126.353 104.575C123.465 104.575 121.124 106.909 121.124 109.788C121.124 112.666 123.465 115 126.353 115Z" fill="url(#paint48_linear_1_1083)"/>
</mask>
<g mask="url(#mask24_1_1083)">
<path d="M126.353 115C129.24 115 131.581 112.666 131.581 109.788C131.581 106.909 129.24 104.575 126.353 104.575C123.465 104.575 121.124 106.909 121.124 109.788C121.124 112.666 123.465 115 126.353 115Z" fill="url(#paint49_linear_1_1083)"/>
</g>
</g>
<defs>
<linearGradient id="paint0_linear_1_1083" x1="54.996" y1="131.134" x2="-16.4057" y2="-50.6699" gradientUnits="userSpaceOnUse">
<stop/>
<stop offset="1" stop-color="white"/>
</linearGradient>
<linearGradient id="paint1_linear_1_1083" x1="54.996" y1="131.134" x2="-16.4057" y2="-50.6699" gradientUnits="userSpaceOnUse">
<stop stop-color="#97C3F9"/>
<stop offset="1" stop-color="#93C1F9"/>
</linearGradient>
<linearGradient id="paint2_linear_1_1083" x1="81.2005" y1="120.843" x2="9.79883" y2="-60.9612" gradientUnits="userSpaceOnUse">
<stop/>
<stop offset="1" stop-color="white"/>
</linearGradient>
<linearGradient id="paint3_linear_1_1083" x1="81.2005" y1="120.843" x2="9.79883" y2="-60.9612" gradientUnits="userSpaceOnUse">
<stop stop-color="#97C3F9"/>
<stop offset="1" stop-color="#93C1F9"/>
</linearGradient>
<linearGradient id="paint4_linear_1_1083" x1="107.405" y1="110.551" x2="36.0033" y2="-71.2524" gradientUnits="userSpaceOnUse">
<stop/>
<stop offset="1" stop-color="white"/>
</linearGradient>
<linearGradient id="paint5_linear_1_1083" x1="107.405" y1="110.551" x2="36.0033" y2="-71.2524" gradientUnits="userSpaceOnUse">
<stop stop-color="#97C3F9"/>
<stop offset="1" stop-color="#93C1F9"/>
</linearGradient>
<linearGradient id="paint6_linear_1_1083" x1="133.609" y1="100.26" x2="62.2076" y2="-81.5443" gradientUnits="userSpaceOnUse">
<stop/>
<stop offset="1" stop-color="white"/>
</linearGradient>
<linearGradient id="paint7_linear_1_1083" x1="133.609" y1="100.26" x2="62.2076" y2="-81.5443" gradientUnits="userSpaceOnUse">
<stop stop-color="#97C3F9"/>
<stop offset="1" stop-color="#93C1F9"/>
</linearGradient>
<linearGradient id="paint8_linear_1_1083" x1="159.813" y1="89.9681" x2="88.4119" y2="-91.8358" gradientUnits="userSpaceOnUse">
<stop/>
<stop offset="1" stop-color="white"/>
</linearGradient>
<linearGradient id="paint9_linear_1_1083" x1="159.813" y1="89.9681" x2="88.4119" y2="-91.8358" gradientUnits="userSpaceOnUse">
<stop stop-color="#97C3F9"/>
<stop offset="1" stop-color="#93C1F9"/>
</linearGradient>
<linearGradient id="paint10_linear_1_1083" x1="46.0538" y1="134.645" x2="-25.3466" y2="-47.157" gradientUnits="userSpaceOnUse">
<stop/>
<stop offset="1" stop-color="white"/>
</linearGradient>
<linearGradient id="paint11_linear_1_1083" x1="46.0538" y1="134.645" x2="-25.3466" y2="-47.157" gradientUnits="userSpaceOnUse">
<stop stop-color="#97C3F9"/>
<stop offset="1" stop-color="#93C1F9"/>
</linearGradient>
<linearGradient id="paint12_linear_1_1083" x1="72.258" y1="124.354" x2="0.857657" y2="-57.4489" gradientUnits="userSpaceOnUse">
<stop/>
<stop offset="1" stop-color="white"/>
</linearGradient>
<linearGradient id="paint13_linear_1_1083" x1="72.258" y1="124.354" x2="0.857657" y2="-57.4489" gradientUnits="userSpaceOnUse">
<stop stop-color="#97C3F9"/>
<stop offset="1" stop-color="#93C1F9"/>
</linearGradient>
<linearGradient id="paint14_linear_1_1083" x1="98.4624" y1="114.062" x2="27.0621" y2="-67.7402" gradientUnits="userSpaceOnUse">
<stop/>
<stop offset="1" stop-color="white"/>
</linearGradient>
<linearGradient id="paint15_linear_1_1083" x1="98.4624" y1="114.062" x2="27.0621" y2="-67.7402" gradientUnits="userSpaceOnUse">
<stop stop-color="#97C3F9"/>
<stop offset="1" stop-color="#93C1F9"/>
</linearGradient>
<linearGradient id="paint16_linear_1_1083" x1="124.667" y1="103.771" x2="53.2664" y2="-78.0317" gradientUnits="userSpaceOnUse">
<stop/>
<stop offset="1" stop-color="white"/>
</linearGradient>
<linearGradient id="paint17_linear_1_1083" x1="124.667" y1="103.771" x2="53.2664" y2="-78.0317" gradientUnits="userSpaceOnUse">
<stop stop-color="#97C3F9"/>
<stop offset="1" stop-color="#93C1F9"/>
</linearGradient>
<linearGradient id="paint18_linear_1_1083" x1="150.871" y1="93.4795" x2="79.4707" y2="-88.323" gradientUnits="userSpaceOnUse">
<stop/>
<stop offset="1" stop-color="white"/>
</linearGradient>
<linearGradient id="paint19_linear_1_1083" x1="150.871" y1="93.4795" x2="79.4707" y2="-88.323" gradientUnits="userSpaceOnUse">
<stop stop-color="#97C3F9"/>
<stop offset="1" stop-color="#93C1F9"/>
</linearGradient>
<linearGradient id="paint20_linear_1_1083" x1="37.1113" y1="138.158" x2="-34.2903" y2="-43.6457" gradientUnits="userSpaceOnUse">
<stop/>
<stop offset="1" stop-color="white"/>
</linearGradient>
<linearGradient id="paint21_linear_1_1083" x1="37.1113" y1="138.158" x2="-34.2903" y2="-43.6457" gradientUnits="userSpaceOnUse">
<stop stop-color="#97C3F9"/>
<stop offset="1" stop-color="#93C1F9"/>
</linearGradient>
<linearGradient id="paint22_linear_1_1083" x1="63.3157" y1="127.867" x2="-8.08596" y2="-53.9373" gradientUnits="userSpaceOnUse">
<stop/>
<stop offset="1" stop-color="white"/>
</linearGradient>
<linearGradient id="paint23_linear_1_1083" x1="63.3157" y1="127.867" x2="-8.08596" y2="-53.9373" gradientUnits="userSpaceOnUse">
<stop stop-color="#97C3F9"/>
<stop offset="1" stop-color="#93C1F9"/>
</linearGradient>
<linearGradient id="paint24_linear_1_1083" x1="89.5201" y1="117.575" x2="18.1185" y2="-64.2287" gradientUnits="userSpaceOnUse">
<stop/>
<stop offset="1" stop-color="white"/>
</linearGradient>
<linearGradient id="paint25_linear_1_1083" x1="89.5201" y1="117.575" x2="18.1185" y2="-64.2287" gradientUnits="userSpaceOnUse">
<stop stop-color="#97C3F9"/>
<stop offset="1" stop-color="#93C1F9"/>
</linearGradient>
<linearGradient id="paint26_linear_1_1083" x1="115.724" y1="107.283" x2="44.3228" y2="-74.5203" gradientUnits="userSpaceOnUse">
<stop/>
<stop offset="1" stop-color="white"/>
</linearGradient>
<linearGradient id="paint27_linear_1_1083" x1="115.724" y1="107.283" x2="44.3228" y2="-74.5203" gradientUnits="userSpaceOnUse">
<stop stop-color="#97C3F9"/>
<stop offset="1" stop-color="#93C1F9"/>
</linearGradient>
<linearGradient id="paint28_linear_1_1083" x1="141.929" y1="96.992" x2="70.5271" y2="-84.8118" gradientUnits="userSpaceOnUse">
<stop/>
<stop offset="1" stop-color="white"/>
</linearGradient>
<linearGradient id="paint29_linear_1_1083" x1="141.929" y1="96.992" x2="70.5271" y2="-84.8118" gradientUnits="userSpaceOnUse">
<stop stop-color="#97C3F9"/>
<stop offset="1" stop-color="#93C1F9"/>
</linearGradient>
<linearGradient id="paint30_linear_1_1083" x1="28.169" y1="141.67" x2="-43.2327" y2="-40.1337" gradientUnits="userSpaceOnUse">
<stop/>
<stop offset="1" stop-color="white"/>
</linearGradient>
<linearGradient id="paint31_linear_1_1083" x1="28.169" y1="141.67" x2="-43.2327" y2="-40.1337" gradientUnits="userSpaceOnUse">
<stop stop-color="#97C3F9"/>
<stop offset="1" stop-color="#93C1F9"/>
</linearGradient>
<linearGradient id="paint32_linear_1_1083" x1="54.3733" y1="131.379" x2="-17.0284" y2="-50.4252" gradientUnits="userSpaceOnUse">
<stop/>
<stop offset="1" stop-color="white"/>
</linearGradient>
<linearGradient id="paint33_linear_1_1083" x1="54.3733" y1="131.379" x2="-17.0284" y2="-50.4252" gradientUnits="userSpaceOnUse">
<stop stop-color="#97C3F9"/>
<stop offset="1" stop-color="#93C1F9"/>
</linearGradient>
<linearGradient id="paint34_linear_1_1083" x1="80.5777" y1="121.087" x2="9.17609" y2="-60.7167" gradientUnits="userSpaceOnUse">
<stop/>
<stop offset="1" stop-color="white"/>
</linearGradient>
<linearGradient id="paint35_linear_1_1083" x1="80.5777" y1="121.087" x2="9.17609" y2="-60.7167" gradientUnits="userSpaceOnUse">
<stop stop-color="#97C3F9"/>
<stop offset="1" stop-color="#93C1F9"/>
</linearGradient>
<linearGradient id="paint36_linear_1_1083" x1="106.782" y1="110.796" x2="35.3804" y2="-71.0083" gradientUnits="userSpaceOnUse">
<stop/>
<stop offset="1" stop-color="white"/>
</linearGradient>
<linearGradient id="paint37_linear_1_1083" x1="106.782" y1="110.796" x2="35.3804" y2="-71.0083" gradientUnits="userSpaceOnUse">
<stop stop-color="#97C3F9"/>
<stop offset="1" stop-color="#93C1F9"/>
</linearGradient>
<linearGradient id="paint38_linear_1_1083" x1="132.986" y1="100.504" x2="61.5847" y2="-81.2998" gradientUnits="userSpaceOnUse">
<stop/>
<stop offset="1" stop-color="white"/>
</linearGradient>
<linearGradient id="paint39_linear_1_1083" x1="132.986" y1="100.504" x2="61.5847" y2="-81.2998" gradientUnits="userSpaceOnUse">
<stop stop-color="#97C3F9"/>
<stop offset="1" stop-color="#93C1F9"/>
</linearGradient>
<linearGradient id="paint40_linear_1_1083" x1="19.2266" y1="145.182" x2="-52.1751" y2="-36.6217" gradientUnits="userSpaceOnUse">
<stop/>
<stop offset="1" stop-color="white"/>
</linearGradient>
<linearGradient id="paint41_linear_1_1083" x1="19.2266" y1="145.182" x2="-52.1751" y2="-36.6217" gradientUnits="userSpaceOnUse">
<stop stop-color="#97C3F9"/>
<stop offset="1" stop-color="#93C1F9"/>
</linearGradient>
<linearGradient id="paint42_linear_1_1083" x1="45.4309" y1="134.891" x2="-25.9707" y2="-46.9132" gradientUnits="userSpaceOnUse">
<stop/>
<stop offset="1" stop-color="white"/>
</linearGradient>
<linearGradient id="paint43_linear_1_1083" x1="45.4309" y1="134.891" x2="-25.9707" y2="-46.9132" gradientUnits="userSpaceOnUse">
<stop stop-color="#97C3F9"/>
<stop offset="1" stop-color="#93C1F9"/>
</linearGradient>
<linearGradient id="paint44_linear_1_1083" x1="71.6353" y1="124.599" x2="0.233749" y2="-57.2046" gradientUnits="userSpaceOnUse">
<stop/>
<stop offset="1" stop-color="white"/>
</linearGradient>
<linearGradient id="paint45_linear_1_1083" x1="71.6353" y1="124.599" x2="0.233749" y2="-57.2046" gradientUnits="userSpaceOnUse">
<stop stop-color="#97C3F9"/>
<stop offset="1" stop-color="#93C1F9"/>
</linearGradient>
<linearGradient id="paint46_linear_1_1083" x1="97.8397" y1="114.308" x2="26.4381" y2="-67.4962" gradientUnits="userSpaceOnUse">
<stop/>
<stop offset="1" stop-color="white"/>
</linearGradient>
<linearGradient id="paint47_linear_1_1083" x1="97.8397" y1="114.308" x2="26.4381" y2="-67.4962" gradientUnits="userSpaceOnUse">
<stop stop-color="#97C3F9"/>
<stop offset="1" stop-color="#93C1F9"/>
</linearGradient>
<linearGradient id="paint48_linear_1_1083" x1="124.044" y1="104.016" x2="52.6424" y2="-77.7877" gradientUnits="userSpaceOnUse">
<stop/>
<stop offset="1" stop-color="white"/>
</linearGradient>
<linearGradient id="paint49_linear_1_1083" x1="124.044" y1="104.016" x2="52.6424" y2="-77.7877" gradientUnits="userSpaceOnUse">
<stop stop-color="#97C3F9"/>
<stop offset="1" stop-color="#93C1F9"/>
</linearGradient>
</defs>
</svg>
